<svg width="28" height="28" viewBox="0 0 28 28" fill="none" xmlns="http://www.w3.org/2000/svg">
<path fill-rule="evenodd" clip-rule="evenodd" d="M4 0C1.79086 0 0 1.79086 0 4V24C0 26.2091 1.79086 28 4 28H24C26.2091 28 28 26.2091 28 24V4C28 1.79086 26.2091 0 24 0H4ZM22.788 7.61565C23.128 7.18044 23.0508 6.55199 22.6156 6.21198C22.1804 5.87196 21.552 5.94914 21.212 6.38435L11.3059 19.0642L5.72952 13.1161C5.35181 12.7132 4.71896 12.6927 4.31607 13.0705C3.91315 13.4482 3.89273 14.081 4.27048 14.4839L10.6455 21.2839C10.8452 21.497 11.1282 21.6121 11.42 21.599C11.7117 21.5859 11.9832 21.4458 12.163 21.2156L22.788 7.61565Z" fill="#458ECC"/>
</svg>
