<svg width="28" height="28" viewBox="0 0 28 28" fill="none" xmlns="http://www.w3.org/2000/svg">
<path fill-rule="evenodd" clip-rule="evenodd" d="M4 0C1.79086 0 0 1.79086 0 4V24C0 26.2091 1.79086 28 4 28H24C26.2091 28 28 26.2091 28 24V4C28 1.79086 26.2091 0 24 0H4ZM7.70709 6.29289C7.31659 5.90237 6.68341 5.90237 6.29291 6.29289C5.90237 6.68341 5.90237 7.31659 6.29291 7.70711L12.9191 14.3333L6.29291 20.9596C5.90237 21.3501 5.90237 21.9832 6.29291 22.3738C6.68341 22.7643 7.31659 22.7643 7.70709 22.3738L14.3333 15.7475L20.9596 22.3738C21.3501 22.7643 21.9832 22.7643 22.3738 22.3738C22.7643 21.9832 22.7643 21.3501 22.3738 20.9596L15.7476 14.3333L22.3738 7.70711C22.7643 7.31659 22.7643 6.68341 22.3738 6.29289C21.9832 5.90237 21.3501 5.90237 20.9596 6.29289L14.3333 12.9191L7.70709 6.29289Z" fill="black"/>
</svg>
