<svg width="32" height="32" viewBox="0 0 32 32" fill="none" xmlns="http://www.w3.org/2000/svg">
<path d="M17.2812 13.9625C17.2812 13.6741 17.4047 13.3975 17.6245 13.1935C17.8443 12.9896 18.1423 12.875 18.4531 12.875H23.9219C24.2327 12.875 24.5307 12.9896 24.7505 13.1935C24.9703 13.3975 25.0938 13.6741 25.0938 13.9625C25.0938 14.2509 24.9703 14.5275 24.7505 14.7315C24.5307 14.9354 24.2327 15.05 23.9219 15.05H18.4531C18.1423 15.05 17.8443 14.9354 17.6245 14.7315C17.4047 14.5275 17.2812 14.2509 17.2812 13.9625ZM18.4531 20.85C18.1423 20.85 17.8443 20.9646 17.6245 21.1685C17.4047 21.3725 17.2812 21.6491 17.2812 21.9375C17.2812 22.2259 17.4047 22.5025 17.6245 22.7065C17.8443 22.9104 18.1423 23.025 18.4531 23.025H23.9219C24.2327 23.025 24.5307 22.9104 24.7505 22.7065C24.9703 22.5025 25.0938 22.2259 25.0938 21.9375C25.0938 21.6491 24.9703 21.3725 24.7505 21.1685C24.5307 20.9646 24.2327 20.85 23.9219 20.85H18.4531ZM14.5938 13.281C14.7089 13.1814 14.8012 13.0614 14.8653 12.928C14.9293 12.7946 14.9638 12.6506 14.9665 12.5046C14.9693 12.3585 14.9404 12.2135 14.8814 12.0781C14.8225 11.9427 14.7348 11.8197 14.6235 11.7164C14.5122 11.6131 14.3797 11.5317 14.2337 11.477C14.0878 11.4223 13.9315 11.3955 13.7742 11.398C13.6168 11.4006 13.4617 11.4326 13.3179 11.492C13.1742 11.5515 13.0448 11.6372 12.9375 11.744L10.6406 13.8755L9.90625 13.194C9.6841 13.0019 9.39028 12.8973 9.08668 12.9023C8.78309 12.9073 8.49342 13.0214 8.27872 13.2206C8.06401 13.4199 7.94102 13.6887 7.93566 13.9704C7.93031 14.2522 8.043 14.5248 8.25 14.731L9.8125 16.181C10.0322 16.3847 10.3301 16.499 10.6406 16.499C10.9512 16.499 11.249 16.3847 11.4687 16.181L14.5938 13.281ZM14.5938 19.719C14.8132 19.9229 14.9365 20.1993 14.9365 20.4875C14.9365 20.7757 14.8132 21.0521 14.5938 21.256L11.4687 24.156C11.249 24.3597 10.9512 24.474 10.6406 24.474C10.3301 24.474 10.0322 24.3597 9.8125 24.156L8.25 22.706C8.13486 22.6064 8.04252 22.4864 7.97847 22.353C7.91442 22.2196 7.87998 22.0756 7.8772 21.9296C7.87442 21.7835 7.90337 21.6385 7.96231 21.5031C8.02125 21.3677 8.10897 21.2447 8.22025 21.1414C8.33153 21.0381 8.46408 20.9567 8.61 20.902C8.75592 20.8473 8.91222 20.8205 9.06957 20.823C9.22691 20.8256 9.38209 20.8576 9.52584 20.917C9.66959 20.9765 9.79897 21.0622 9.90625 21.169L10.6406 21.8505L12.9375 19.719C13.1572 19.5153 13.4551 19.401 13.7656 19.401C14.0762 19.401 14.374 19.5153 14.5938 19.719ZM22.7406 5.0218C22.6751 4.20041 22.2773 3.4324 21.627 2.87191C20.9766 2.31143 20.1219 1.99995 19.2344 2H13.7656C12.9009 2.00002 12.0665 2.29581 11.4219 2.83081C10.7774 3.36581 10.368 4.10248 10.2719 4.9H7.51562C6.58322 4.9 5.68901 5.24373 5.0297 5.85556C4.3704 6.4674 4 7.29723 4 8.1625V27.7375C4 28.6028 4.3704 29.4326 5.0297 30.0444C5.68901 30.6563 6.58322 31 7.51562 31H25.4844C25.9461 31 26.4032 30.9156 26.8297 30.7517C27.2563 30.5877 27.6438 30.3474 27.9703 30.0444C28.2968 29.7415 28.5557 29.3818 28.7324 28.986C28.9091 28.5902 29 28.1659 29 27.7375V8.1625C29 7.73406 28.9091 7.30982 28.7324 6.914C28.5557 6.51817 28.2968 6.15852 27.9703 5.85556C27.6438 5.55261 27.2563 5.3123 26.8297 5.14834C26.4032 4.98439 25.9461 4.9 25.4844 4.9H22.7281L22.7406 5.0218ZM22.7406 5.0392L22.75 5.2625C22.75 5.1871 22.7469 5.11315 22.7422 5.0392H22.7406ZM13.7656 8.525H19.2344C20.4531 8.525 21.5266 7.94935 22.1578 7.075H25.4844C25.7952 7.075 26.0932 7.18958 26.313 7.39352C26.5328 7.59747 26.6562 7.87408 26.6562 8.1625V27.7375C26.6562 28.0259 26.5328 28.3025 26.313 28.5065C26.0932 28.7104 25.7952 28.825 25.4844 28.825H7.51562C7.20482 28.825 6.90675 28.7104 6.68698 28.5065C6.46721 28.3025 6.34375 28.0259 6.34375 27.7375V8.1625C6.34375 7.87408 6.46721 7.59747 6.68698 7.39352C6.90675 7.18958 7.20482 7.075 7.51562 7.075H10.8422C11.4734 7.94935 12.5469 8.525 13.7656 8.525ZM13.7656 4.175H19.2344C19.5452 4.175 19.8432 4.28958 20.063 4.49352C20.2828 4.69747 20.4062 4.97408 20.4062 5.2625C20.4062 5.55092 20.2828 5.82753 20.063 6.03148C19.8432 6.23542 19.5452 6.35 19.2344 6.35H13.7656C13.4548 6.35 13.1568 6.23542 12.937 6.03148C12.7172 5.82753 12.5938 5.55092 12.5938 5.2625C12.5938 4.97408 12.7172 4.69747 12.937 4.49352C13.1568 4.28958 13.4548 4.175 13.7656 4.175Z" fill="black"/>
</svg>
